<svg xmlns="http://www.w3.org/2000/svg" width="8.375" height="11.411" viewBox="0 0 8.375 11.411"><defs><style>.a{fill:#7a7a7a;}</style></defs><path class="a" d="M174.519,0a.316.316,0,0,0-.294.334V2.676h1.3V1.81a.316.316,0,0,1,.294-.334h4.195V0Z" transform="translate(-171.641)"/><path class="a" d="M112.16,150h-1.515a1.293,1.293,0,0,0-1.155.8h3.826A1.293,1.293,0,0,0,112.16,150Z" transform="translate(-108.176 -146.652)"/><path class="a" d="M48.7,217.428v-.519a1.289,1.289,0,0,0-.9-1.279H43.68a1.289,1.289,0,0,0-.9,1.279v.519a.32.32,0,0,0-.271.333.316.316,0,0,0,.294.334h5.865a.316.316,0,0,0,.294-.334A.32.32,0,0,0,48.7,217.428Z" transform="translate(-42.513 -210.823)"/><path class="a" d="M315.474,481.995a.269.269,0,0,0-.338.028.366.366,0,0,0-.09.371.3.3,0,0,0,.277.221.31.31,0,0,0,.289-.269A.356.356,0,0,0,315.474,481.995Z" transform="translate(-309.682 -471.204)"/><path class="a" d="M254.175,482a.27.27,0,0,0-.338.028.367.367,0,0,0-.09.371.3.3,0,0,0,.277.221.31.31,0,0,0,.288-.269A.355.355,0,0,0,254.175,482Z" transform="translate(-249.586 -471.205)"/><path class="a" d="M131.543,482a.27.27,0,0,0-.338.028.366.366,0,0,0-.09.371.3.3,0,0,0,.277.221.309.309,0,0,0,.289-.269A.355.355,0,0,0,131.543,482Z" transform="translate(-129.36 -471.205)"/><path class="a" d="M70.218,482a.27.27,0,0,0-.338.028.366.366,0,0,0-.09.371.3.3,0,0,0,.277.221.309.309,0,0,0,.289-.269A.355.355,0,0,0,70.218,482Z" transform="translate(-69.238 -471.208)"/><path class="a" d="M315.474,420.77a.269.269,0,0,0-.338.028.366.366,0,0,0-.09.371.3.3,0,0,0,.277.221.31.31,0,0,0,.289-.269A.356.356,0,0,0,315.474,420.77Z" transform="translate(-309.682 -411.344)"/><path class="a" d="M254.174,420.771a.269.269,0,0,0-.338.028.366.366,0,0,0-.09.371.3.3,0,0,0,.277.221.31.31,0,0,0,.288-.269A.356.356,0,0,0,254.174,420.771Z" transform="translate(-249.585 -411.345)"/><path class="a" d="M131.543,420.77a.269.269,0,0,0-.338.028.366.366,0,0,0-.09.371.3.3,0,0,0,.277.222.31.31,0,0,0,.289-.269A.356.356,0,0,0,131.543,420.77Z" transform="translate(-129.36 -411.343)"/><path class="a" d="M70.218,420.778a.269.269,0,0,0-.338.028.366.366,0,0,0-.09.37.3.3,0,0,0,.277.221.31.31,0,0,0,.289-.269A.356.356,0,0,0,70.218,420.778Z" transform="translate(-69.238 -411.352)"/><path class="a" d="M315.323,360.179a.31.31,0,0,0,.289-.269.356.356,0,0,0-.138-.351.269.269,0,0,0-.338.028.366.366,0,0,0-.09.371A.3.3,0,0,0,315.323,360.179Z" transform="translate(-309.682 -351.497)"/><path class="a" d="M254.023,360.18a.309.309,0,0,0,.288-.269.355.355,0,0,0-.137-.351.269.269,0,0,0-.338.028.367.367,0,0,0-.09.371A.3.3,0,0,0,254.023,360.18Z" transform="translate(-249.585 -351.499)"/><path class="a" d="M131.392,360.179a.309.309,0,0,0,.289-.269.355.355,0,0,0-.137-.351.269.269,0,0,0-.338.028.367.367,0,0,0-.09.371A.3.3,0,0,0,131.392,360.179Z" transform="translate(-129.36 -351.497)"/><path class="a" d="M70.067,360.183a.309.309,0,0,0,.289-.269.355.355,0,0,0-.137-.351.269.269,0,0,0-.338.028.366.366,0,0,0-.09.37A.3.3,0,0,0,70.067,360.183Z" transform="translate(-69.238 -351.502)"/><path class="a" d="M192.695,360.182a.309.309,0,0,0,.289-.269.356.356,0,0,0-.137-.351.269.269,0,0,0-.338.028.366.366,0,0,0-.09.371A.3.3,0,0,0,192.695,360.182Z" transform="translate(-189.46 -351.501)"/><path class="a" d="M192.847,420.773a.269.269,0,0,0-.338.028.366.366,0,0,0-.09.371.3.3,0,0,0,.277.221.31.31,0,0,0,.289-.269A.356.356,0,0,0,192.847,420.773Z" transform="translate(-189.461 -411.347)"/><path class="a" d="M192.847,482a.269.269,0,0,0-.338.028.366.366,0,0,0-.09.371.3.3,0,0,0,.277.221.309.309,0,0,0,.289-.269A.355.355,0,0,0,192.847,482Z" transform="translate(-189.461 -471.206)"/></svg>