<svg xmlns="http://www.w3.org/2000/svg" width="12.917" height="11.411" viewBox="0 0 12.917 11.411"><defs><style>.a{fill:#7a7a7a;}</style></defs><path class="a" d="M12.6,62.86a1.442,1.442,0,0,0,.065-.43,1.344,1.344,0,0,0-.5-1.07V58.243a1.221,1.221,0,0,0-1.135-1.29H1.89a1.221,1.221,0,0,0-1.135,1.29V61.36a1.344,1.344,0,0,0-.5,1.07,1.442,1.442,0,0,0,.065.43H0v5.5H.757V67.048h11.4v1.316h.757v-5.5ZM1.89,57.813h9.137a.407.407,0,0,1,.378.43v2.9h-.756v-.43a1.221,1.221,0,0,0-1.135-1.29h-2.3a1.058,1.058,0,0,0-.757.329,1.058,1.058,0,0,0-.757-.329H3.4a1.221,1.221,0,0,0-1.135,1.29v.43H1.511v-2.9A.407.407,0,0,1,1.89,57.813Zm4.19,3.328H3.024v-.43a.407.407,0,0,1,.378-.43H5.7a.407.407,0,0,1,.378.43Zm.757-.43a.407.407,0,0,1,.378-.43h2.3a.407.407,0,0,1,.378.43v.43H6.837ZM1.009,62.43A.407.407,0,0,1,1.388,62H11.529a.433.433,0,0,1,0,.86H1.388A.407.407,0,0,1,1.009,62.43ZM.757,63.72h11.4v2.468H.757Z" transform="translate(0 -56.953)"/></svg>